<svg height="512" viewBox="0 0 58 58" width="512" xmlns="http://www.w3.org/2000/svg"><g id="Page-1" fill="none" fill-rule="evenodd"><g id="019---Latte-Art" fill-rule="nonzero" transform="translate(-1 -1)"><path id="Shape" d="m44.05 10.29 8.12-8.12c1.5629658-1.56296584 4.0970342-1.56296584 5.66 0s1.5629658 4.09703416 0 5.66l-8.12 8.12z" fill="#d1d4d1"/><path id="Shape" d="m55 32c.001123 13.259948-9.6266429 24.558196-22.7188409 26.6607126-13.0921979 2.1025165-25.77345216-5.613057-29.92422133-18.2066005s1.45760142-26.3372862 13.23418963-32.43139762c11.7765881-6.09411141 26.2354472-2.7346949 34.1188726 7.92728552 3.4353225 4.64612 5.2895107 10.2717761 5.29 16.05z" fill="#ecf0f1"/><circle id="Oval" cx="28" cy="32" fill="#a56a43" r="22"/><path id="Shape" d="m28 55c-12.7025492 0-23-10.2974508-23-23s10.2974508-23 23-23 23 10.2974508 23 23c-.0143284 12.6966095-10.3033905 22.9856716-23 23zm0-44c-11.5979797 0-21 9.4020203-21 21s9.4020203 21 21 21 21-9.4020203 21-21c-.0132259-11.592497-9.407503-20.9867741-21-21z" fill="#bdc3c7"/><path id="Shape" d="m40.457 33.942c-2.3 3.094-6.539 5.22-11.457 5.48v-4.467c4.4153767-.3191886 8.2636122-3.1248542 9.918-7.231.423-1.121-.741-2.1-1.534-1.3-2.2878786 2.1235357-5.2643454 3.3515413-8.384 3.459v-4.412c3.586-2 5-4.231 5-6.138.0548558-.8424383-.2327019-1.6713465-.7974881-2.298824-.5647862-.6274774-1.3589663-1.0003798-2.2025119-1.034176-1.1796733.002816-2.2899432.5579509-3 1.5-.7100568-.9420491-1.8203267-1.497184-3-1.5-.8435456.0337962-1.6377257.4066986-2.2025119 1.034176-.5647862.6274775-.8523439 1.4563857-.7974881 2.298824 0 1.907 1.414 4.134 5 6.138v4.413c-3.1147733-.1075412-6.0869838-1.3317057-8.374-3.449-.794-.8-1.96.177-1.536 1.3 1.6543707 4.1011518 5.4992078 6.9027228 9.91 7.221v4.466c-4.913-.26-9.151-2.383-11.45-5.471-.627-.842-1.763-.066-1.515 1.029 1.4488978 6.1049857 6.7046534 10.5548452 12.965 10.977v4.043c0 .5522847.4477153 1 1 1s1-.4477153 1-1v-4.043c6.2639687-.4218469 11.5228488-4.8743815 12.972-10.983.246-1.097-.889-1.874-1.515-1.032z" fill="#fdd7ad"/></g></g></svg>